<svg width="106" height="42" viewBox="0 0 106 42" fill="none" xmlns="http://www.w3.org/2000/svg">
<path d="M16.953 27.17C15.7063 27.17 14.6183 26.9263 13.689 26.439C12.771 25.9403 12.0627 25.232 11.564 24.314C11.0767 23.396 10.833 22.3137 10.833 21.067C10.833 19.8203 11.0767 18.738 11.564 17.82C12.0627 16.8907 12.771 16.1767 13.689 15.678C14.607 15.1793 15.6893 14.93 16.936 14.93C17.956 14.93 18.9023 15.1057 19.775 15.457C20.6477 15.8083 21.305 16.2843 21.747 16.885C21.8717 17.0663 21.934 17.2307 21.934 17.378C21.934 17.6273 21.8037 17.8483 21.543 18.041C21.3957 18.1317 21.2427 18.177 21.084 18.177C20.9367 18.177 20.7893 18.143 20.642 18.075C20.506 18.007 20.387 17.9163 20.285 17.803C19.911 17.3497 19.4463 17.0153 18.891 16.8C18.347 16.5847 17.6953 16.477 16.936 16.477C15.6327 16.477 14.6127 16.885 13.876 17.701C13.1507 18.5057 12.788 19.6277 12.788 21.067C12.788 22.4837 13.1563 23.6 13.893 24.416C14.6297 25.2207 15.6497 25.623 16.953 25.623C18.4943 25.623 19.6787 25.181 20.506 24.297C20.778 24.025 21.0557 23.889 21.339 23.889C21.5203 23.889 21.6847 23.9457 21.832 24.059C22.0587 24.2517 22.172 24.4613 22.172 24.688C22.172 24.8807 22.104 25.062 21.968 25.232C21.4807 25.8327 20.795 26.3087 19.911 26.66C19.027 27 18.041 27.17 16.953 27.17ZM28.1438 27.17C27.1578 27.17 26.2908 26.9887 25.5428 26.626C24.7948 26.252 24.2168 25.7363 23.8088 25.079C23.4121 24.4217 23.2138 23.6737 23.2138 22.835C23.2138 21.9963 23.4121 21.2483 23.8088 20.591C24.2168 19.9337 24.7948 19.4237 25.5428 19.061C26.2908 18.687 27.1578 18.5 28.1438 18.5C29.1298 18.5 29.9968 18.687 30.7448 19.061C31.4928 19.4237 32.0651 19.9337 32.4618 20.591C32.8698 21.2483 33.0738 21.9963 33.0738 22.835C33.0738 23.6737 32.8698 24.4217 32.4618 25.079C32.0651 25.7363 31.4928 26.252 30.7448 26.626C29.9968 26.9887 29.1298 27.17 28.1438 27.17ZM28.1438 25.64C29.0618 25.64 29.7928 25.3907 30.3368 24.892C30.8808 24.3933 31.1528 23.7077 31.1528 22.835C31.1528 21.9623 30.8808 21.2767 30.3368 20.778C29.7928 20.2793 29.0618 20.03 28.1438 20.03C27.2144 20.03 26.4778 20.2793 25.9338 20.778C25.4011 21.2767 25.1348 21.9623 25.1348 22.835C25.1348 23.7077 25.4011 24.3933 25.9338 24.892C26.4778 25.3907 27.2144 25.64 28.1438 25.64ZM35.3612 27.17C35.0665 27.17 34.8342 27.0907 34.6642 26.932C34.4942 26.7733 34.4092 26.5523 34.4092 26.269V19.401C34.4092 19.1177 34.4885 18.8967 34.6472 18.738C34.8172 18.5793 35.0439 18.5 35.3272 18.5C35.6219 18.5 35.8485 18.5793 36.0072 18.738C36.1772 18.8967 36.2622 19.1177 36.2622 19.401V20.064C37.1009 19.0213 38.2229 18.5 39.6282 18.5C40.7049 18.5 41.5492 18.8287 42.1612 19.486C42.7845 20.1433 43.0962 21.05 43.0962 22.206V26.269C43.0962 26.5523 43.0055 26.7733 42.8242 26.932C42.6542 27.0907 42.4219 27.17 42.1272 27.17C41.8325 27.17 41.6002 27.0907 41.4302 26.932C41.2715 26.7733 41.1922 26.5523 41.1922 26.269V22.206C41.1922 21.5033 41.0222 20.965 40.6822 20.591C40.3422 20.217 39.8605 20.03 39.2372 20.03C38.3305 20.03 37.6165 20.302 37.0952 20.846C36.5739 21.3787 36.3132 22.104 36.3132 23.022V26.269C36.3132 26.541 36.2225 26.762 36.0412 26.932C35.8712 27.0907 35.6445 27.17 35.3612 27.17ZM45.8036 27.17C45.5089 27.17 45.2766 27.0907 45.1066 26.932C44.9366 26.7733 44.8516 26.5523 44.8516 26.269V19.401C44.8516 19.1177 44.9309 18.8967 45.0896 18.738C45.2596 18.5793 45.4863 18.5 45.7696 18.5C46.0643 18.5 46.2909 18.5793 46.4496 18.738C46.6196 18.8967 46.7046 19.1177 46.7046 19.401V20.064C47.5433 19.0213 48.6653 18.5 50.0706 18.5C51.1473 18.5 51.9916 18.8287 52.6036 19.486C53.2269 20.1433 53.5386 21.05 53.5386 22.206V26.269C53.5386 26.5523 53.4479 26.7733 53.2666 26.932C53.0966 27.0907 52.8643 27.17 52.5696 27.17C52.2749 27.17 52.0426 27.0907 51.8726 26.932C51.7139 26.7733 51.6346 26.5523 51.6346 26.269V22.206C51.6346 21.5033 51.4646 20.965 51.1246 20.591C50.7846 20.217 50.3029 20.03 49.6796 20.03C48.7729 20.03 48.0589 20.302 47.5376 20.846C47.0163 21.3787 46.7556 22.104 46.7556 23.022V26.269C46.7556 26.541 46.6649 26.762 46.4836 26.932C46.3136 27.0907 46.0869 27.17 45.8036 27.17ZM59.782 27.17C58.8073 27.17 57.9573 27 57.232 26.66C56.518 26.3087 55.9683 25.81 55.583 25.164C55.209 24.518 55.022 23.753 55.022 22.869C55.022 21.4977 55.43 20.4267 56.246 19.656C57.062 18.8853 58.1953 18.5 59.646 18.5C60.5413 18.5 61.3346 18.6417 62.026 18.925C62.7173 19.2083 63.2556 19.605 63.641 20.115C64.0263 20.6137 64.219 21.186 64.219 21.832C64.219 22.3533 64.0603 22.7557 63.743 23.039C63.4256 23.3223 62.978 23.464 62.4 23.464H56.892C56.892 24.1667 57.1413 24.7107 57.64 25.096C58.1386 25.4813 58.8526 25.674 59.782 25.674C60.3146 25.674 60.785 25.6173 61.193 25.504C61.601 25.3907 61.9806 25.2093 62.332 24.96C62.6606 24.7447 62.91 24.637 63.08 24.637C63.2273 24.637 63.3803 24.7163 63.539 24.875C63.7203 25.045 63.811 25.232 63.811 25.436C63.811 25.6513 63.7146 25.8327 63.522 25.98C62.57 26.7733 61.3233 27.17 59.782 27.17ZM61.822 22.087C62.0146 22.087 62.1563 22.0473 62.247 21.968C62.3376 21.8887 62.383 21.7527 62.383 21.56C62.383 21.0953 62.1336 20.7213 61.635 20.438C61.1363 20.1433 60.4733 19.996 59.646 19.996C58.8073 19.996 58.1443 20.1887 57.657 20.574C57.1696 20.948 56.926 21.4523 56.926 22.087H61.822ZM70.2568 27.17C68.7948 27.17 67.6444 26.7847 66.8058 26.014C65.9671 25.2433 65.5478 24.178 65.5478 22.818C65.5478 21.4807 65.9671 20.4267 66.8058 19.656C67.6444 18.8853 68.7948 18.5 70.2568 18.5C71.0728 18.5 71.8038 18.6303 72.4498 18.891C73.0958 19.1517 73.6058 19.52 73.9798 19.996C74.1044 20.1547 74.1668 20.3133 74.1668 20.472C74.1668 20.7327 74.0308 20.9593 73.7588 21.152C73.6341 21.2427 73.4924 21.288 73.3338 21.288C73.0164 21.288 72.7444 21.1633 72.5178 20.914C72.2571 20.6307 71.9341 20.4153 71.5488 20.268C71.1634 20.1093 70.7328 20.03 70.2568 20.03C69.3728 20.03 68.6871 20.2737 68.1998 20.761C67.7124 21.2483 67.4688 21.934 67.4688 22.818C67.4688 23.7133 67.7124 24.4103 68.1998 24.909C68.6871 25.3963 69.3728 25.64 70.2568 25.64C71.2428 25.64 72.0644 25.3227 72.7218 24.688C72.9938 24.416 73.2601 24.28 73.5208 24.28C73.7134 24.28 73.8778 24.3423 74.0138 24.467C74.2518 24.6483 74.3708 24.8693 74.3708 25.13C74.3708 25.3227 74.2971 25.487 74.1498 25.623C73.6171 26.1557 73.0334 26.5467 72.3988 26.796C71.7754 27.0453 71.0614 27.17 70.2568 27.17ZM82.0257 24.977C82.1957 25.113 82.2807 25.2717 82.2807 25.453C82.2807 25.6457 82.207 25.8383 82.0597 26.031C81.8217 26.3823 81.4817 26.66 81.0397 26.864C80.5977 27.068 80.1103 27.17 79.5777 27.17C78.7277 27.17 78.059 26.932 77.5717 26.456C77.0843 25.98 76.8407 25.3283 76.8407 24.501V20.183H76.0757C75.7697 20.183 75.526 20.115 75.3447 19.979C75.1747 19.843 75.0897 19.6617 75.0897 19.435C75.0897 19.197 75.1747 19.01 75.3447 18.874C75.526 18.738 75.7697 18.67 76.0757 18.67H76.8407V15.984C76.8407 15.7007 76.9257 15.4797 77.0957 15.321C77.2657 15.1623 77.498 15.083 77.7927 15.083C78.0873 15.083 78.3197 15.1623 78.4897 15.321C78.6597 15.4797 78.7447 15.7007 78.7447 15.984V18.67H80.5977C80.8923 18.67 81.1247 18.738 81.2947 18.874C81.476 19.01 81.5667 19.197 81.5667 19.435C81.5667 19.6617 81.4817 19.843 81.3117 19.979C81.1417 20.115 80.9037 20.183 80.5977 20.183H78.7447V24.654C78.7447 24.96 78.8297 25.2037 78.9997 25.385C79.1697 25.555 79.4077 25.64 79.7137 25.64C80.133 25.64 80.507 25.4757 80.8357 25.147C81.0963 24.909 81.3343 24.79 81.5497 24.79C81.731 24.79 81.8897 24.8523 82.0257 24.977Z" fill="#A96161"/>
<path d="M105.061 22.0607C105.646 21.4749 105.646 20.5251 105.061 19.9393L95.5147 10.3934C94.9289 9.80761 93.9792 9.80761 93.3934 10.3934C92.8076 10.9792 92.8076 11.9289 93.3934 12.5147L101.879 21L93.3934 29.4853C92.8076 30.0711 92.8076 31.0208 93.3934 31.6066C93.9792 32.1924 94.9289 32.1924 95.5147 31.6066L105.061 22.0607ZM85 22.5H104V19.5H85V22.5Z" fill="#A85E5E"/>
</svg>
