<svg width="15" height="32" viewBox="0 0 15 32" fill="none" xmlns="http://www.w3.org/2000/svg">
<g clip-path="url(#clip0_6_56)">
<path d="M7 24.007V28H4.034C2.893 28 2.034 28.859 2.034 30V31.5C2.034 31.6326 2.08668 31.7598 2.18045 31.8536C2.27421 31.9473 2.40139 32 2.534 32H12.534C12.6666 32 12.7938 31.9473 12.8876 31.8536C12.9813 31.7598 13.034 31.6326 13.034 31.5V30.075C13.034 28.911 12.155 28 11.034 28H8V24.007C9.91755 23.8772 11.7142 23.0238 13.0264 21.6195C14.3386 20.2153 15.0683 18.365 15.068 16.443V14.556C15.0679 14.4859 15.0541 14.4165 15.0272 14.3517C15.0003 14.2869 14.9609 14.2281 14.9112 14.1786C14.8616 14.129 14.8027 14.0898 14.7379 14.063C14.6731 14.0362 14.6036 14.0225 14.5335 14.0225C14.4634 14.0226 14.3939 14.0365 14.3292 14.0634C14.2644 14.0903 14.2056 14.1296 14.1561 14.1793C14.1065 14.2289 14.0672 14.2878 14.0405 14.3526C14.0137 14.4174 13.9999 14.4869 14 14.557V16.444C14 20.041 11.1 22.966 7.534 22.966C3.968 22.966 1.068 20.04 1.068 16.444V14.557C1.068 14.4154 1.01174 14.2796 0.911595 14.1794C0.811451 14.0793 0.675626 14.023 0.534 14.023C0.392374 14.023 0.256549 14.0793 0.156405 14.1794C0.0562605 14.2796 0 14.4154 0 14.557L0 16.444C0 20.447 3.095 23.729 7 24.007ZM12.034 30.075V31H3.034V30C3.034 29.411 3.445 29 4.034 29H11.034C11.604 29 12.034 29.462 12.034 30.075Z" fill="#7C82FF"/>
<path d="M7.534 -0.0339966C5.034 -0.0339966 3 2.025 3 4.557V16.444C3 18.975 5.034 21.035 7.534 21.035C10.034 21.035 12.068 18.975 12 16.444V4.557C12.0164 3.96016 11.9131 3.36607 11.696 2.80984C11.479 2.25361 11.1527 1.74653 10.7363 1.31855C10.32 0.89057 9.82213 0.550375 9.27211 0.318066C8.72208 0.0857562 8.13107 -0.0339556 7.534 -0.0339966ZM11 16.443C11 18.385 9.445 19.965 7.534 19.965C5.623 19.965 4 18.386 4 16.443V4.557C4 2.615 5.623 1.035 7.534 1.035C9.445 1.035 11 2.614 11 4.557V16.443Z" fill="#7C82FF"/>
</g>
<defs>
<clipPath id="clip0_6_56">
<rect width="15" height="32" fill="white"/>
</clipPath>
</defs>
</svg>
