<svg width="100" height="135" viewBox="0 0 100 135" fill="none" xmlns="http://www.w3.org/2000/svg">
<path d="M50 77.0011C45.5049 77.0011 41.1109 75.5899 37.3734 72.9458C33.6359 70.3018 30.7229 66.5437 29.0027 62.1468C27.2826 57.7499 26.8325 52.9116 27.7094 48.2439C28.5863 43.5762 30.7509 39.2886 33.9294 35.9233C37.1078 32.5581 41.1574 30.2663 45.5661 29.3379C49.9748 28.4094 54.5445 28.8859 58.6973 30.7072C62.8502 32.5284 66.3997 35.6126 68.897 39.5697C71.3943 43.5268 72.7272 48.1791 72.7272 52.9383C72.72 59.3178 70.3232 65.4339 66.0626 69.9449C61.802 74.4559 56.0254 76.9935 50 77.0011ZM50 38.5006C47.303 38.5006 44.6665 39.3474 42.424 40.9338C40.1815 42.5203 38.4337 44.7751 37.4016 47.4133C36.3695 50.0514 36.0995 52.9543 36.6256 55.755C37.1518 58.5556 38.4505 61.1282 40.3576 63.1473C42.2647 65.1665 44.6945 66.5415 47.3396 67.0986C49.9848 67.6557 52.7267 67.3698 55.2184 66.277C57.7101 65.1842 59.8398 63.3337 61.3382 60.9595C62.8366 58.5852 63.6363 55.7938 63.6363 52.9383C63.6327 49.1104 62.1949 45.4403 59.6383 42.7335C57.0818 40.0268 53.6154 38.5044 50 38.5006Z" fill="url(#paint0_linear_17_45)"/>
<path d="M50 134.752L11.6546 86.8716C11.1218 86.1526 10.5945 85.4291 10.0728 84.7011C3.52269 75.5658 -0.0158236 64.4076 5.31949e-05 52.9382C5.31949e-05 38.8981 5.26789 25.4331 14.6447 15.5052C24.0215 5.5774 36.7392 0 50 0C63.2608 0 75.9785 5.5774 85.3553 15.5052C94.7321 25.4331 99.9999 38.8981 99.9999 52.9382C100.016 64.4024 96.4789 75.5555 89.9318 84.6867L89.9272 84.7011C89.9272 84.7011 88.5636 86.5973 88.359 86.8523L50 134.752ZM17.3273 78.902C17.3364 78.902 18.3909 80.3842 18.6319 80.7019L50 119.871L81.4091 80.6489C81.6091 80.3842 82.6727 78.8923 82.6772 78.8875C88.0279 71.4238 90.9196 62.3084 90.909 52.9382C90.909 41.4508 86.599 30.434 78.9271 22.3112C71.2551 14.1885 60.8498 9.62512 50 9.62512C39.1502 9.62512 28.7449 14.1885 21.0729 22.3112C13.401 30.434 9.09095 41.4508 9.09095 52.9382C9.08142 62.3142 11.9718 71.4348 17.3273 78.902Z" fill="url(#paint1_linear_17_45)"/>
<defs>
<linearGradient id="paint0_linear_17_45" x1="35.6362" y1="29.2605" x2="64.1168" y2="75.5879" gradientUnits="userSpaceOnUse">
<stop stop-color="#FFDC7C"/>
<stop offset="0.505208" stop-color="#F9E9BF"/>
<stop offset="1" stop-color="#FFDC7C"/>
</linearGradient>
<linearGradient id="paint1_linear_17_45" x1="50" y1="0" x2="50" y2="134.752" gradientUnits="userSpaceOnUse">
<stop stop-color="#FFDC7C"/>
<stop offset="0.523958" stop-color="#F9E9BF"/>
<stop offset="1" stop-color="#FFDC7C"/>
</linearGradient>
</defs>
</svg>
