<svg width="29" height="29" viewBox="0 0 29 29" fill="none" xmlns="http://www.w3.org/2000/svg">
<path d="M26.7444 28.2929L16.948 18.4964L16.6316 18.18L16.2821 18.4596C15.5229 19.067 14.6458 19.5512 13.6463 19.91C12.6566 20.2653 11.5997 20.4444 10.4722 20.4444C7.67492 20.4444 5.32626 19.4811 3.39542 17.5492C1.46448 15.6172 0.501069 13.2685 0.5 10.4722L26.7444 28.2929ZM26.7444 28.2929L28.2929 26.7444L18.4964 16.948L18.18 16.6316L18.4596 16.2821C19.067 15.5229 19.5512 14.6458 19.91 13.6463C20.2652 12.6567 20.4444 11.5998 20.4444 10.4724L26.7444 28.2929ZM15.962 15.9604C14.457 17.4654 12.6174 18.2222 10.4725 18.2222C10.4724 18.2222 10.4723 18.2222 10.4722 18.2222V17.7222C8.45941 17.7233 6.74787 17.0187 5.33761 15.6084L15.962 15.9604ZM15.962 15.9604C17.4671 14.4553 18.2234 12.6161 18.2222 10.472M15.962 15.9604L18.2222 10.472M10.472 2.72222C10.472 2.72222 10.4721 2.72222 10.4722 2.72222V3.22222L10.472 2.72222ZM10.472 2.72222C12.6161 2.72108 14.4553 3.47738 15.9604 4.98245M10.472 2.72222L15.9604 4.98245M18.2222 10.472C18.2222 8.32703 17.4654 6.48744 15.9604 4.98245M18.2222 10.472C18.2222 10.472 18.2222 10.4721 18.2222 10.4722H17.7222L15.9604 4.98245M0.5 10.472C0.500042 7.67482 1.46342 5.32621 3.39524 3.39542C5.3272 1.46448 7.67598 0.501069 10.4722 0.5L0.5 10.472ZM10.4724 0.5C13.2696 0.500042 15.6182 1.46342 17.549 3.39524C19.48 5.3272 20.4434 7.67598 20.4444 10.4722L10.4724 0.5Z" fill="#954C4C" stroke="#954C4C"/>
</svg>
