<svg width="34" height="34" viewBox="0 0 34 34" fill="none" xmlns="http://www.w3.org/2000/svg">
<path d="M24.1562 10.8887C24.1562 12.2988 23.9089 13.4987 23.4141 14.4883C22.9193 15.4531 22.2637 16.2943 21.4473 17.0117C20.6309 17.7044 19.6908 18.3229 18.627 18.8672C17.5879 19.3867 16.5241 19.8939 15.4355 20.3887C14.7181 20.7103 14.013 21.069 13.3203 21.4648C12.6276 21.8359 11.972 22.2689 11.3535 22.7637C10.735 23.2337 10.166 23.7656 9.64648 24.3594C9.15169 24.9284 8.71875 25.584 8.34766 26.3262L19.0723 25.9551L23.8223 16.6035L23.043 31.2617L0.628906 30.334C0.653646 30.1855 0.678385 30.0371 0.703125 29.8887C0.703125 29.7155 0.715495 29.5423 0.740234 29.3691C0.888672 28.0827 1.34635 26.8457 2.11328 25.6582C2.90495 24.4707 3.84505 23.3822 4.93359 22.3926C6.04688 21.3783 7.24674 20.4753 8.5332 19.6836C9.81966 18.8919 11.0319 18.2487 12.1699 17.7539C13.0111 17.3828 13.8027 17.0117 14.5449 16.6406C15.3118 16.2448 15.9674 15.7871 16.5117 15.2676C17.0807 14.7233 17.526 14.0924 17.8477 13.375C18.1693 12.6576 18.3301 11.7917 18.3301 10.7773C18.3301 10.1094 18.194 9.51562 17.9219 8.99609C17.6497 8.47656 17.291 8.04362 16.8457 7.69727C16.4004 7.35091 15.8809 7.09115 15.2871 6.91797C14.7181 6.72005 14.1367 6.62109 13.543 6.62109C12.1823 6.62109 10.9701 7.0293 9.90625 7.8457C8.86719 8.66211 7.97656 9.67643 7.23438 10.8887C6.49219 12.0762 5.89844 13.3503 5.45312 14.7109C5.00781 16.0716 4.69857 17.2962 4.52539 18.3848C4.10482 15.2923 3.68424 12.237 3.26367 9.21875C2.86784 6.17578 2.47201 3.10807 2.07617 0.015625L6.30664 5.76758C7.37044 4.75326 8.58268 3.98633 9.94336 3.4668C11.3288 2.94727 12.7389 2.6875 14.1738 2.6875C15.3118 2.6875 16.4746 2.88542 17.6621 3.28125C18.8496 3.65234 19.9258 4.19661 20.8906 4.91406C21.8555 5.60677 22.6348 6.46029 23.2285 7.47461C23.847 8.48893 24.1562 9.62695 24.1562 10.8887ZM33.5078 30.1484C33.5078 30.668 33.3965 31.1257 33.1738 31.5215C32.9512 31.9173 32.6543 32.2389 32.2832 32.4863C31.9368 32.7585 31.5286 32.9564 31.0586 33.0801C30.6133 33.2285 30.1556 33.3027 29.6855 33.3027C29.2402 33.3027 28.7702 33.2409 28.2754 33.1172C27.8053 32.9935 27.3724 32.7956 26.9766 32.5234C26.5807 32.276 26.2591 31.9544 26.0117 31.5586C25.7643 31.1875 25.6406 30.7422 25.6406 30.2227C25.6406 29.6784 25.752 29.196 25.9746 28.7754C26.222 28.3548 26.5312 28.0085 26.9023 27.7363C27.2982 27.4395 27.7311 27.2168 28.2012 27.0684C28.6712 26.9199 29.1536 26.8457 29.6484 26.8457C30.0938 26.8457 30.5391 26.9323 30.9844 27.1055C31.4544 27.2539 31.875 27.4766 32.2461 27.7734C32.6172 28.0703 32.9141 28.429 33.1367 28.8496C33.3841 29.2454 33.5078 29.6784 33.5078 30.1484Z" fill="black"/>
</svg>
