<svg width="33" height="35" viewBox="0 0 33 35" fill="none" xmlns="http://www.w3.org/2000/svg">
<path d="M23.7852 23.0234C23.7852 24.4583 23.4388 25.7201 22.7461 26.8086C22.0534 27.8724 21.1628 28.763 20.0742 29.4805C19.0104 30.1979 17.8105 30.7298 16.4746 31.0762C15.1387 31.4473 13.8398 31.6328 12.5781 31.6328C11.0938 31.6328 9.65885 31.3483 8.27344 30.7793C6.88802 30.2103 5.66341 29.4062 4.59961 28.3672L0.257812 34.082L3.96875 19.127C4.11719 20.1413 4.40169 21.1556 4.82227 22.1699C5.24284 23.1842 5.78711 24.0996 6.45508 24.916C7.12305 25.7324 7.91471 26.4004 8.83008 26.9199C9.74544 27.4395 10.7598 27.6992 11.873 27.6992C12.4421 27.6992 13.0111 27.6126 13.5801 27.4395C14.1738 27.2415 14.7057 26.9694 15.1758 26.623C15.6458 26.2767 16.0293 25.8561 16.3262 25.3613C16.623 24.8418 16.7715 24.2604 16.7715 23.6172C16.7715 22.8255 16.5983 22.1576 16.252 21.6133C15.9056 21.069 15.4603 20.6361 14.916 20.3145C14.3717 19.9681 13.7533 19.7207 13.0605 19.5723C12.3926 19.4238 11.7246 19.3496 11.0566 19.3496C10.6855 19.3496 10.3021 19.362 9.90625 19.3867C9.53516 19.4115 9.17643 19.4362 8.83008 19.4609L8.9043 15.416C9.47331 15.515 10.0299 15.6139 10.5742 15.7129C11.1185 15.7871 11.6751 15.8242 12.2441 15.8242C12.8874 15.8242 13.5059 15.7376 14.0996 15.5645C14.7181 15.3913 15.25 15.1315 15.6953 14.7852C16.1654 14.4388 16.5365 14.0059 16.8086 13.4863C17.1055 12.9421 17.2539 12.3112 17.2539 11.5938C17.2539 10.9753 17.1055 10.4062 16.8086 9.88672C16.5117 9.34245 16.1283 8.88477 15.6582 8.51367C15.1882 8.11784 14.6562 7.80859 14.0625 7.58594C13.4688 7.36328 12.875 7.25195 12.2812 7.25195C11.168 7.25195 10.1413 7.48698 9.20117 7.95703C8.28581 8.42708 7.48177 9.05794 6.78906 9.84961C6.12109 10.6165 5.55208 11.4948 5.08203 12.4844C4.63672 13.4492 4.3151 14.4388 4.11719 15.4531L0.925781 0.423828L5.08203 6.28711C6.09635 5.37174 7.20964 4.64193 8.42188 4.09766C9.65885 3.55339 10.9701 3.28125 12.3555 3.28125C13.5182 3.28125 14.7305 3.44206 15.9922 3.76367C17.2539 4.08529 18.4043 4.58008 19.4434 5.24805C20.4824 5.91602 21.3359 6.75716 22.0039 7.77148C22.6719 8.78581 23.0059 9.97331 23.0059 11.334C23.0059 12.5215 22.8079 13.5729 22.4121 14.4883C22.0163 15.3789 21.373 16.1953 20.4824 16.9375C21.5215 17.556 22.3255 18.4342 22.8945 19.5723C23.4883 20.6855 23.7852 21.8359 23.7852 23.0234ZM32.8027 30.1484C32.8027 30.668 32.6914 31.1257 32.4688 31.5215C32.2461 31.9173 31.9492 32.2389 31.5781 32.4863C31.2318 32.7585 30.8236 32.9564 30.3535 33.0801C29.9082 33.2285 29.4505 33.3027 28.9805 33.3027C28.5352 33.3027 28.0651 33.2409 27.5703 33.1172C27.1003 32.9935 26.6673 32.7956 26.2715 32.5234C25.8757 32.276 25.554 31.9544 25.3066 31.5586C25.0592 31.1875 24.9355 30.7422 24.9355 30.2227C24.9355 29.6784 25.0469 29.196 25.2695 28.7754C25.5169 28.3548 25.8262 28.0085 26.1973 27.7363C26.5931 27.4395 27.026 27.2168 27.4961 27.0684C27.9661 26.9199 28.4486 26.8457 28.9434 26.8457C29.3887 26.8457 29.834 26.9323 30.2793 27.1055C30.7493 27.2539 31.1699 27.4766 31.541 27.7734C31.9121 28.0703 32.209 28.429 32.4316 28.8496C32.679 29.2454 32.8027 29.6784 32.8027 30.1484Z" fill="black"/>
</svg>
