<svg width="31" height="32" viewBox="0 0 31 32" fill="none" xmlns="http://www.w3.org/2000/svg">
<path d="M25.0249 29.1504L2.94479 29.0762L11.4428 25.2539L10.6264 5.99414L0.903772 3.99023L17.6401 0.353516L16.8608 25.3281L25.0249 29.1504ZM30.9624 28.1484C30.9624 28.668 30.851 29.1257 30.6284 29.5215C30.4057 29.9173 30.1089 30.2389 29.7378 30.4863C29.3914 30.7585 28.9832 30.9564 28.5131 31.0801C28.0678 31.2285 27.6102 31.3027 27.1401 31.3027C26.6948 31.3027 26.2247 31.2409 25.7299 31.1172C25.2599 30.9935 24.827 30.7956 24.4311 30.5234C24.0353 30.276 23.7137 29.9544 23.4663 29.5586C23.2189 29.1875 23.0952 28.7422 23.0952 28.2227C23.0952 27.6784 23.2065 27.196 23.4292 26.7754C23.6766 26.3548 23.9858 26.0085 24.3569 25.7363C24.7527 25.4395 25.1857 25.2168 25.6557 25.0684C26.1258 24.9199 26.6082 24.8457 27.103 24.8457C27.5483 24.8457 27.9936 24.9323 28.4389 25.1055C28.909 25.2539 29.3296 25.4766 29.7006 25.7734C30.0717 26.0703 30.3686 26.429 30.5913 26.8496C30.8387 27.2454 30.9624 27.6784 30.9624 28.1484Z" fill="black"/>
</svg>
