<svg width="137" height="113" viewBox="0 0 137 113" fill="none" xmlns="http://www.w3.org/2000/svg">
<path d="M91.3333 18.7155V93.5776H15.2222V18.7155H91.3333ZM98.9444 0H7.61111C5.59252 0 3.6566 0.985906 2.22924 2.74083C0.801882 4.49575 0 6.87593 0 9.35776V102.935C0 105.417 0.801882 107.797 2.22924 109.552C3.6566 111.307 5.59252 112.293 7.61111 112.293H98.9444C100.963 112.293 102.899 111.307 104.326 109.552C105.754 107.797 106.556 105.417 106.556 102.935V70.1832L137 107.614V4.67888L106.556 42.1099V9.35776C106.556 6.87593 105.754 4.49575 104.326 2.74083C102.899 0.985906 100.963 0 98.9444 0Z" fill="url(#paint0_linear_15_46)"/>
<defs>
<linearGradient id="paint0_linear_15_46" x1="0" y1="0" x2="100.296" y2="112.919" gradientUnits="userSpaceOnUse">
<stop stop-color="#FFDC7C"/>
<stop offset="0.523958" stop-color="#F9E9BF"/>
<stop offset="1" stop-color="#FFDC7C"/>
</linearGradient>
</defs>
</svg>
