<svg width="137" height="140" viewBox="0 0 137 140" fill="none" xmlns="http://www.w3.org/2000/svg">
<path d="M117.035 20.3494C110.724 13.8736 103.206 8.73907 94.9199 5.24536C86.6342 1.75165 77.7466 -0.0313285 68.7754 0.000416557C31.1864 0.000416557 0.550755 31.1183 0.550755 69.2989C0.550755 81.5362 3.71759 93.4239 9.63819 103.913L0 139.856L36.1432 130.206C46.1256 135.73 57.3472 138.667 68.7754 138.667C106.364 138.667 137 107.549 137 69.3688C137 50.8379 129.909 33.4259 117.035 20.3494ZM68.7754 126.919C58.5864 126.919 48.604 124.122 39.8608 118.878L37.7955 117.619L16.3161 123.353L22.0301 102.095L20.6533 99.9272C14.9925 90.7455 11.9867 80.1324 11.9789 69.2989C11.9789 37.5516 37.4512 11.6784 68.7065 11.6784C83.8522 11.6784 98.103 17.6921 108.774 28.6009C114.058 33.9431 118.245 40.2974 121.093 47.2956C123.941 54.2937 125.393 61.7964 125.365 69.3688C125.503 101.116 100.031 126.919 68.7754 126.919ZM99.893 83.8438C98.1718 83.0047 89.7729 78.809 88.2583 78.1797C86.6749 77.6203 85.5734 77.3405 84.403 79.0188C83.2327 80.767 79.997 84.683 79.0332 85.8018C78.0693 86.9906 77.0367 87.1304 75.3156 86.2214C73.5945 85.3822 68.0869 83.4942 61.6156 77.6203C56.5211 73.005 53.1477 67.3409 52.1151 65.5927C51.1512 63.8445 51.9774 62.9354 52.8724 62.0264C53.6296 61.2572 54.5935 59.9985 55.4196 59.0195C56.2457 58.0405 56.5899 57.2713 57.1407 56.1524C57.6915 54.9637 57.4161 53.9847 57.003 53.1455C56.5899 52.3064 53.1477 43.7752 51.7708 40.2788C50.394 36.9223 48.9482 37.3419 47.9156 37.2719H44.611C43.4407 37.2719 41.6507 37.6915 40.0673 39.4397C38.5528 41.1879 34.1467 45.3836 34.1467 53.9147C34.1467 62.4459 40.2739 70.6974 41.1 71.8163C41.9261 73.005 53.1477 90.487 70.2211 97.9692C74.2829 99.7874 77.4497 100.836 79.9281 101.605C83.9899 102.934 87.7075 102.724 90.6678 102.305C93.9724 101.815 100.788 98.1091 102.165 94.0533C103.611 89.9975 103.611 86.571 103.129 85.8018C102.647 85.0326 101.614 84.683 99.893 83.8438Z" fill="url(#paint0_linear_15_13)"/>
<defs>
<linearGradient id="paint0_linear_15_13" x1="16" y1="-1.93479e-07" x2="120.22" y2="137.799" gradientUnits="userSpaceOnUse">
<stop stop-color="#FFDE82"/>
<stop offset="0.5" stop-color="#F9E9BF"/>
<stop offset="1" stop-color="#FFDC7C"/>
</linearGradient>
</defs>
</svg>
